<?xml version="1.0" encoding="UTF-8"?>
<svg id="Layer_1" data-name="Layer 1" xmlns="http://www.w3.org/2000/svg" viewBox="0 0 940.79 440.32">
  <defs>
    <style>
      .cls-1 {
        fill: #1b1b1b;
      }

      .cls-1, .cls-2 {
        stroke-width: 0px;
      }

      .cls-2 {
        fill: #f3f3f3;
      }
    </style>
  </defs>
  <path class="cls-1" d="M940.79,255.65c0,29.39-10.99,54.62-31.78,72.95-19.99,17.63-46.62,26.57-79.16,26.57h-9.79v79.29h-103.85v-108.79c-1.03,1.01-2.08,1.98-3.16,2.93-19.99,17.63-46.62,26.57-79.16,26.57h-9.79v79.29h-162.66l-14.87-47.15h-26.81l-14.72,47.15h-109.64l2.51-7.45-63.89,13.31-12.93-62.1c-5.23,12.16-12.86,22.87-22.76,31.82-20.24,18.29-47.37,27.57-80.64,27.57s-63.29-11.63-85.21-34.58C10.93,380.47,0,351.5,0,316.91v-43.39c0-34.31,10.62-63.17,31.57-85.78,21.55-23.27,49.77-35.07,83.87-35.07,23.59,0,44.14,4.37,61.38,13.03l-13.26-63.66L653.46,0l30.24,145.21-50.94,10.61h1.13c32.58,0,59.24,9.02,79.25,26.8,1.05.93,2.07,1.88,3.07,2.86v-29.66h113.64c32.58,0,59.24,9.02,79.25,26.8,20.73,18.44,31.69,43.69,31.69,73.03Z"/>
  <g>
    <path class="cls-2" d="M196.15,327.27l.3.91c.4,23.59-6.78,42.07-21.56,55.43-14.78,13.36-35.18,20.05-61.2,20.05s-47.94-8.53-64.24-25.59c-16.3-17.06-24.45-39.11-24.45-66.14v-43.89c0-26.93,7.95-48.98,23.84-66.14,15.9-17.16,36.75-25.74,62.57-25.74s47.99,6.59,63.18,19.74c15.19,13.16,22.58,31.69,22.17,55.58l-.3.91h-43.13c0-14.17-3.42-24.73-10.25-31.66-6.83-6.93-17.39-10.4-31.66-10.4-13.26,0-23.62,5.34-31.06,16.02-7.44,10.69-11.16,24.48-11.16,41.38v44.19c0,17.01,3.92,30.88,11.77,41.61,7.85,10.73,18.76,16.1,32.73,16.1s23.16-3.47,29.69-10.4c6.53-6.93,9.8-17.59,9.8-31.97h42.98Z"/>
    <path class="cls-2" d="M281.8,194.14l-67.8-79.76-18.03,3.76,58.88,282.71,67.09-13.97-40.14-192.74ZM530.36,139.55l-34.7-38.24h-.01s-32.91-38.74-32.91-38.74l-62.19,12.95.09.11-1.87.39,34.71,38.24,32.95,38.78h.01l62.17-12.95-.12-.15,1.87-.39ZM650.2,114.59l-1.01-4.86-.59-2.84-28.6-31.51-.02-.02-32.88-38.69-62.18,12.95.08.1-1.87.39,34.71,38.25,32.95,38.78h.01l59.44-12.38-.04-.17ZM405.99,165.45l-34.6-38.12-.02-.03-32.99-38.82-62.18,12.95.08.1-1.87.39,34.78,38.33,32.88,38.7,62.18-12.96-.12-.15,1.86-.39Z"/>
    <path class="cls-2" d="M455.64,179.35h-45.41l-74.56,221.12h46.31l14.89-47.69h71.68l15.03,47.69h46.32l-74.26-221.12ZM407.8,318.01l24.6-77.91h.91l24.45,77.91h-49.96Z"/>
    <path class="cls-2" d="M695.74,198.79c-14.58-12.96-34.58-19.44-59.99-19.44h-84.59v221.12h44.35v-80.19h40.24c25.41,0,45.41-6.43,59.99-19.28,14.58-12.86,21.87-29.87,21.87-51.03s-7.29-38.22-21.87-51.18ZM663.85,276.01c-6.38,6.74-15.75,10.1-28.1,10.1h-40.24v-72.59h40.24c12.45,0,21.84,3.47,28.17,10.41,6.33,6.93,9.49,15.71,9.49,26.34s-3.19,19.01-9.56,25.74Z"/>
    <path class="cls-2" d="M793.69,320.28v80.18h-44.34v-221.12h84.59c25.41,0,45.41,6.48,59.99,19.44,14.58,12.96,21.87,30.02,21.87,51.18s-7.29,38.17-21.87,51.03c-14.58,12.86-34.57,19.29-59.99,19.29h-40.24ZM793.69,286.11h40.24c12.35,0,21.72-3.36,28.1-10.1,6.38-6.73,9.57-15.31,9.57-25.74s-3.16-19.41-9.49-26.35c-6.33-6.93-15.72-10.4-28.17-10.4h-40.24v72.59Z"/>
    <polygon class="cls-1" points="309.19 140.25 274.41 101.92 276.28 101.53 309.19 140.25"/>
    <polygon class="cls-2" points="405.99 165.45 404.13 165.84 343.81 178.41 309.19 140.25 274.41 101.92 276.28 101.53 336.59 88.97 371.37 127.3 371.39 127.33 405.99 165.45"/>
    <polygon class="cls-1" points="371.39 127.33 405.99 165.45 404.13 165.84 371.39 127.33"/>
    <polygon class="cls-1" points="433.48 114.26 398.77 76.02 400.64 75.63 433.48 114.26"/>
    <polygon class="cls-2" points="530.36 139.55 528.49 139.94 468.18 152.5 433.48 114.26 398.77 76.02 400.64 75.63 460.95 63.06 495.65 101.3 495.66 101.31 530.36 139.55"/>
    <polygon class="cls-1" points="495.66 101.31 530.36 139.55 528.49 139.94 495.66 101.31"/>
    <polygon class="cls-1" points="557.84 88.36 523.13 50.11 525 49.72 557.84 88.36"/>
    <polygon class="cls-2" points="650.62 114.5 650.2 114.59 592.54 126.6 557.84 88.36 523.13 50.11 525 49.72 585.31 37.16 619.98 75.36 620 75.38 648.6 106.89 649.17 107.52 649.77 110.41 650.62 114.5"/>
    <polygon class="cls-1" points="649.77 110.41 649.19 109.73 620 75.38 648.6 106.89 649.17 107.52 649.77 110.41"/>
  </g>
</svg>